<?xml version="1.0" encoding="UTF-8" standalone="no"?>
<!-- Created with Inkscape (http://www.inkscape.org/) -->

<svg
   xmlns:dc="http://purl.org/dc/elements/1.1/"
   xmlns:cc="http://creativecommons.org/ns#"
   xmlns:rdf="http://www.w3.org/1999/02/22-rdf-syntax-ns#"
   xmlns:svg="http://www.w3.org/2000/svg"
   xmlns="http://www.w3.org/2000/svg"
   xmlns:sodipodi="http://sodipodi.sourceforge.net/DTD/sodipodi-0.dtd"
   xmlns:inkscape="http://www.inkscape.org/namespaces/inkscape"
   width="744.09448819"
   height="1052.3622047"
   id="svg2"
   version="1.1"
   inkscape:version="0.48.3.1 r9886"
   sodipodi:docname="New document 1">
  <defs
     id="defs4" />
  <sodipodi:namedview
     id="base"
     pagecolor="#ffffff"
     bordercolor="#666666"
     borderopacity="1.0"
     inkscape:pageopacity="0.0"
     inkscape:pageshadow="2"
     inkscape:zoom="1.979899"
     inkscape:cx="182.26582"
     inkscape:cy="426.62538"
     inkscape:document-units="px"
     inkscape:current-layer="layer1"
     showgrid="false"
     inkscape:window-width="1871"
     inkscape:window-height="1176"
     inkscape:window-x="49"
     inkscape:window-y="24"
     inkscape:window-maximized="1" />
  <metadata
     id="metadata7">
    <rdf:RDF>
      <cc:Work
         rdf:about="">
        <dc:format>image/svg+xml</dc:format>
        <dc:type
           rdf:resource="http://purl.org/dc/dcmitype/StillImage" />
        <dc:title></dc:title>
      </cc:Work>
    </rdf:RDF>
  </metadata>
  <g
     inkscape:label="Layer 1"
     inkscape:groupmode="layer"
     id="layer1">
    <path
       style="fill:#000000"
       d="m 283.38546,639.82855 c 2.57327,4.88739 1.75639,7.38078 -2.87867,8.78677 -3.22195,0.97734 -3.96463,1.65924 -3.92212,3.60112 0.0688,3.14037 2.80064,3.55613 4.01622,0.61122 1.27877,-3.09799 4.57821,-3.44433 11.35477,-1.19191 9.65165,3.20806 17.38686,4.54759 26.19206,4.53576 8.41734,-0.0113 11.05375,0.80481 11.11144,3.43956 0.0347,1.58304 0.26729,1.54845 -10.96693,1.63069 -8.45085,0.0619 -20.8851,-2.17529 -26.63399,-4.79197 -6.14371,-2.79638 -7.46343,-2.80925 -8.43247,-0.0822 -0.4938,1.38962 -1.85659,3.06705 -3.02844,3.7276 -1.86743,1.05263 -2.55652,0.76881 -5.57849,-2.29769 -2.92026,-2.96331 -3.36664,-4.00096 -2.91701,-6.78105 0.58563,-3.62114 2.62831,-5.82888 5.45028,-5.89066 2.21699,-0.0485 3.34211,-2.61853 1.8847,-4.30502 -0.57727,-0.66802 -1.8852,-3.22178 -2.90651,-5.67501 -2.10649,-5.05992 -11.33542,-19.45301 -23.93774,-37.33238 -4.71509,-6.68948 -7.27121,-10.37557 -8.07023,-11.0826 -0.82765,-0.73239 -3.06461,-2.32929 -4.62399,-2.4024 -1.93038,-0.0905 -4.2304,-0.0296 -5.33223,-0.80591 -3.09924,-2.1837 -3.36993,-6.61732 -0.3382,-10.12072 l 0,-2e-5 c 3.65595,-4.22471 6.57724,-3.34316 14.58385,4.40096 4.7648,4.60858 18.55812,22.97822 21.75053,28.96689 1.15953,2.17514 4.16118,7.06061 6.67034,10.85659 2.88982,3.7564 5.87345,12.79333 11.41531,13.25208 2.03726,-0.0424 3.54677,-3.00775 2.95539,-5.80571 -0.59333,-2.80713 -5.02056,-14.25612 -7.5784,-19.59796 -1.96424,-4.10218 -6.56358,-15.3308 -7.51219,-18.33996 -0.43058,-1.3659 -1.89671,-4.79329 -3.25807,-7.61643 -1.36135,-2.82313 -2.48415,-5.54196 -2.49509,-6.04184 -0.0311,-1.41847 -3.57415,-4.14182 -5.33828,-4.10319 -2.35381,0.0515 -5.81472,-5.86671 -5.27423,-9.01907 0.47765,-2.78575 3.71924,-4.95024 7.53889,-5.03387 2.43412,-0.0533 6.2168,2.14723 9.06276,5.27212 2.87331,3.15494 21.60964,39.93606 21.6665,42.53334 0.0172,0.78565 1.49722,5.21836 3.28893,9.85046 2.3702,6.12769 4.47696,9.67518 7.7335,13.02218 4.27249,4.39114 4.67527,4.57326 8.86424,4.00799 5.61045,-0.75709 9.30667,-3.43985 21.22692,-15.40676 26.20662,-26.30921 45.4808,-32.06046 65.22148,-19.46155 13.16332,8.4011 16.44108,15.57462 13.76589,30.12719 -2.31987,12.61971 -4.64141,17.97691 -10.32744,23.83167 -7.93864,8.17422 -14.4689,12.28604 -25.39695,15.99138 -8.75819,2.96959 -14.77448,2.93542 -20.2511,-0.11505 -3.35679,-1.86972 -4.78775,-2.18811 -6.17184,-1.37324 -3.087,1.81743 -12.33239,0.53747 -16.6276,-2.30198 -3.11764,-2.061 -4.47569,-4.0336 -6.90451,-10.02893 -2.32614,-5.74188 -4.15326,-8.47666 -7.92159,-11.85679 -3.03195,-2.71961 -5.46657,-4.16094 -6.39023,-3.7831 -2.74434,1.12262 -8.01599,-1.91548 -12.9905,-7.48651 -4.16932,-4.66929 -5.54326,-7.3161 -8.92234,-17.18841 -3.71614,-10.857 -7.06046,-18.26503 -16.62155,-36.81848 -4.37884,-8.49719 -9.4676,-13.87645 -13.0528,-13.79795 -3.38596,0.0741 -3.13473,2.84144 0.37106,4.08721 4.02002,1.4285 6.09973,3.53414 7.52003,7.61378 0.68979,1.98137 2.09103,5.3846 3.11385,7.56273 1.02283,2.17813 3.10535,7.08372 4.62784,10.90131 1.52248,3.81759 3.44071,8.27666 4.26273,9.90906 3.44579,6.84272 9.07054,21.05891 9.61269,24.2954 0.72678,4.33876 -1.05764,8.10193 -4.72227,9.95878 -2.42576,1.22913 -3.20895,1.19963 -5.97709,-0.22513 -1.75206,-0.90178 -3.74349,-3.078 -5.29842,-4.99973 -1.76569,-2.1822 -3.4289,-6.32561 -5.0675,-8.7945 -7.69898,-11.59077 -14.97253,-24.11931 -22.82352,-33.77885 -3.10627,-3.76385 -8.78127,-9.16678 -10.6401,-10.10671 -1.62698,-0.82269 -3.75494,-1.5132 -4.75944,-0.64171 -1.54148,1.33736 -1.6896,3.53525 -0.2936,4.35635 0.62447,0.40276 2.77791,0.43292 4.21308,0.88825 1.69304,0.53715 4.18523,0.8134 10.01085,7.3275 m 84.37193,49.66502 c 0.89009,1.6309 2.17909,5.46345 2.86445,8.51675 0.7521,3.3506 2.36633,6.83512 4.07173,8.78932 2.35477,2.69831 3.68237,3.30128 7.96706,3.6185 l 5.14143,0.38066 -1.67261,-4.34986 c -1.56537,-4.07096 -1.55723,-4.6079 0.12689,-8.37423 0.98972,-2.21341 3.69677,-6.00913 6.01564,-8.43492 7.82118,-8.18178 16.64054,-9.65441 25.16668,-6.5793 1.4607,0.52683 4.80242,4.12321 3.41354,7.25445 -1.63992,3.69723 -5.87582,9.55986 -16.37199,9.90403 -8.30402,0.27234 -10.24598,-0.76403 -7.13669,-4.01252 1.70914,-1.78566 2.57322,-2.00921 4.93435,-1.27654 4.46532,1.38561 14.29186,-2.4578 14.22387,-5.56331 -0.0353,-1.61393 -3.92186,-3.35502 -7.32295,-3.28055 -6.73358,0.14743 -15.51996,8.71092 -13.89472,13.54224 1.55372,4.61875 8.63066,9.5704 13.76441,9.6308 12.82569,0.1509 33.50555,-14.8095 35.05473,-25.35957 1.63032,-3.93888 2.41833,-8.16522 2.65733,-11.77975 0.39816,-6.36851 0.14993,-8.03316 -1.71459,-11.49839 -2.50818,-4.66146 -7.6576,-8.84526 -16.01078,-13.00845 -5.16199,-2.57271 -6.5655,-2.84322 -11.91824,-2.29707 -8.01744,0.81804 -18.66564,5.18245 -25.35787,10.39351 -2.97501,2.31656 -9.59301,8.4189 -14.70668,13.56076 -5.11367,5.14186 -10.55986,10.17362 -12.10263,11.18167 -2.80036,1.82977 -2.8017,1.83638 -0.80788,3.95466 1.09845,1.167 2.72543,3.4562 3.61552,5.08711 z m 61.10826,-36.67765 c 1.29011,0.15397 2.36043,0.95477 2.37849,1.77957 0.0475,2.16821 -3.85949,1.95493 -4.33149,-0.23645 -0.3045,-1.41373 0.13399,-1.7602 1.953,-1.54312 z m 5.83249,7.70539 c 1.07915,-0.0236 2.26195,0.69006 2.62844,1.58597 0.79254,1.93742 0.70939,2.05148 -1.86111,2.55315 -1.43911,0.28087 -2.09431,-0.23362 -2.3607,-1.8537 -0.27491,-1.67195 0.13046,-2.25339 1.59337,-2.28542 z m 4.30163,10.90845 c 2.34763,-0.0514 2.92168,0.2942 2.48947,1.49874 -0.64836,1.80687 -4.44522,1.66455 -5.10176,-0.19124 -0.28684,-0.81079 0.61833,-1.26384 2.61229,-1.3075 z m 11.81253,31.74903 c 3.21275,-4.02102 5.82749,-7.94498 5.81052,-8.71994 -0.0183,-0.83643 0.98482,-1.43124 2.46855,-1.46372 1.37467,-0.0301 2.50944,0.40373 2.52171,0.96408 0.0127,0.57943 1.06335,0.73316 2.43621,0.35646 3.4723,-0.95275 6.55504,0.23487 7.65567,2.94935 l 0.95429,2.35353 5.06371,-3.57111 c 10.09643,-7.12038 18.17052,-3.18862 13.4456,6.54748 -3.25391,6.70496 -7.21698,11.86116 -9.14904,11.90347 -3.54885,-3.08431 6.34005,-11.91008 6.67156,-17.2723 -0.0106,-0.48273 -1.29177,-0.84981 -2.8471,-0.81575 -3.87672,0.0849 -11.7398,5.76248 -15.2892,11.03969 -1.61395,2.3996 -3.52269,4.37579 -4.24164,4.39153 -1.36847,0.03 -1.88108,-3.12143 -0.70723,-4.34784 0.37412,-0.39086 0.79707,-1.26283 0.93988,-1.9377 1.51483,-7.15853 1.61686,-6.75807 -1.70329,-6.68538 -2.52348,0.0553 -4.52937,1.51643 -10.61752,7.73427 -4.12845,4.21638 -7.8807,7.67435 -8.33835,7.68437 -2.34499,0.0513 -0.29129,-4.58104 4.92567,-11.11049 z m 40.14952,4.12213 c 0.57717,-0.0126 2.42521,0.65073 4.10676,1.47414 5.68737,2.78501 16.39954,0.85809 16.31649,-2.93502 -0.0179,-0.8174 -2.30682,-2.59132 -5.08651,-3.94205 -2.77968,-1.35072 -5.21388,-3.19834 -5.40934,-4.10581 -0.7329,-3.40275 9.36183,-7.65226 14.91429,-6.27838 3.77482,0.93404 3.96062,2.59769 0.33471,2.99701 -5.65436,0.62269 -9.46867,1.53516 -9.45277,2.26131 0.009,0.3999 1.59803,1.53496 3.53172,2.52234 1.93369,0.98738 4.20072,2.51954 5.03785,3.40482 3.65323,3.86332 -1.73997,9.53418 -10.57395,11.11835 -4.57453,0.82033 -6.28439,0.67113 -10.09691,-0.88103 -3.10544,-1.26427 -4.60303,-2.47401 -4.63076,-3.74064 -0.0225,-1.02964 0.43124,-1.88241 1.00842,-1.89504 z m 32.72665,-3.7768 c 2.07393,-3.03839 5.02249,-8.02735 6.55235,-11.08657 3.09935,-6.19771 5.9172,-7.55303 5.44696,-2.61986 -0.15765,1.65384 -0.61819,3.2393 -1.02342,3.52324 -1.03188,0.72302 -3.17717,5.16203 -2.71055,5.60866 0.21166,0.20259 1.53749,-0.26206 2.94628,-1.03254 5.55607,-3.03869 12.85199,-5.11895 14.02283,-3.9983 1.6257,1.55605 0.24126,2.64329 -7.13189,5.60086 -3.52141,1.41253 -6.52348,2.96234 -6.67126,3.444 -0.45448,1.48132 9.28996,7.19999 13.20074,7.74705 5.86875,0.82096 4.4992,4.87021 -1.53654,4.543 -3.4805,-0.18868 -7.31341,-1.99887 -14.12959,-6.67304 -3.6839,-2.52622 -5.25391,-3.13861 -5.55445,-2.16656 -0.66668,2.15629 -4.10037,5.34732 -5.34115,4.9637 -2.21471,-0.68475 -1.79351,-2.399 1.92969,-7.85364 z m 34.54132,3.28365 c 0.62272,-1.40028 1.89539,-3.6663 2.82814,-5.03563 0.93275,-1.36931 1.67945,-3.24122 1.65934,-4.15978 -0.0399,-1.82207 1.71318,-2.88066 3.70195,-2.23541 1.90621,0.61847 1.58726,2.49557 -1.46446,8.61865 -1.5297,3.06926 -2.69449,6.40375 -2.58842,7.40998 0.13988,1.32684 -0.49386,1.84454 -2.30653,1.88423 -2.9054,0.0636 -3.6182,-2.46116 -1.83002,-6.48204 z m 11.04842,-29.73396 c 0.54728,-0.35502 1.9228,-0.37325 3.05671,-0.0405 2.95514,0.8672 2.10234,3.86475 -1.23002,4.3235 -2.1772,0.29972 -2.74282,-0.0323 -2.77781,-1.63057 -0.0242,-1.10381 0.40383,-2.2974 0.95112,-2.65243 z"
       id="path3171"
       inkscape:connector-curvature="0"
       sodipodi:nodetypes="cscssscsssssscssssssccssccssssccssssssssssssssssssssscsssssssssccsscscsssscsssssssscsssccssssssssscsscssscscssscscsscssccssccscscscsssssscssssccsssssssssssssssssssssssssscs" />
  </g>
</svg>
